<?xml version="1.0" encoding="utf-8"?>
<!-- Generator: Adobe Illustrator 24.0.2, SVG Export Plug-In . SVG Version: 6.00 Build 0)  -->
<svg version="1.1" id="Слой_1" xmlns="http://www.w3.org/2000/svg" xmlns:xlink="http://www.w3.org/1999/xlink" x="0px" y="0px"
	 viewBox="0 0 20 20" style="enable-background:new 0 0 20 20;" xml:space="preserve">
<path d="M10,14c-3.5,0-7,0.9-10,2.7V20h20v-3.3C17.1,15,13.6,14,10,14z"/>
<path d="M10,0C7.2,0,5,2.2,5,5v2c0,2.8,2.2,5,5,5s5-2.2,5-5V5C15,2.2,12.8,0,10,0z M10,10.4c-0.4,0-0.7-0.3-0.7-0.7
	c0-0.4,0.3-0.8,0.7-0.8c0.4,0,0.7,0.3,0.7,0.8C10.7,10,10.4,10.4,10,10.4z M11.2,5.9c-0.5,0.6-0.7,1.2-0.7,1.8l0,0.3H9.5l0-0.3
	C9.4,7,9.7,6.3,10.3,5.6c0.5-0.6,0.8-1.1,0.8-1.6c0-0.6-0.4-1-1.1-1C9.5,2.9,9.1,3,8.8,3.3L8.5,2.5C8.9,2.2,9.5,2,10.2,2
	c1.4,0,2,0.9,2,1.8C12.2,4.6,11.7,5.2,11.2,5.9z"/>
</svg>
